<svg xmlns="http://www.w3.org/2000/svg" width="256" height="256" viewBox="0 0 256 256" role="img" aria-labelledby="title description">
<title id="title">Minifig Head Standard Grin Print [Hollow Stud]</title>
<desc id="description">Lokale Vorschau aus verifizierter offizieller LDraw-Geometrie für 3626cpr0001.</desc>
<rect width="256" height="256" rx="24" fill="#f5f6f4"/>
<rect x="16" y="16" width="224" height="224" rx="18" fill="#ffffff" stroke="#dde3de" stroke-width="2"/>
<ellipse cx="128" cy="211" rx="68" ry="11" fill="#d9ddd8" opacity=".62"/>
<polygon points="114.8,93.1 142.4,93.1 142.8,101.9" fill="#edc936"/>
<polygon points="114.8,93.1 142.8,101.9 114.4,102.0" fill="#edc936"/>
<polygon points="116.0,84.5 142.4,93.1 114.8,93.1" fill="#e4c133"/>
<polygon points="116.0,84.5 141.2,84.4 142.4,93.1" fill="#e4c133"/>
<polygon points="89.3,90.3 114.8,93.1 114.4,102.0" fill="#e8c434"/>
<polygon points="142.4,93.1 169.0,98.8 142.8,101.9" fill="#efca36"/>
<polygon points="141.2,84.4 167.8,90.1 142.4,93.1" fill="#e5c234"/>
<polygon points="92.6,81.9 116.0,84.5 114.8,93.1" fill="#dfbd32"/>
<polygon points="117.7,77.4 141.2,84.4 116.0,84.5" fill="#d9b730"/>
<polygon points="89.3,90.3 114.4,102.0 88.1,99.0" fill="#e8c434"/>
<polygon points="114.4,171.9 114.4,102.0 142.8,101.9" fill="#f0cb36"/>
<polygon points="142.4,93.1 167.8,90.1 169.0,98.8" fill="#efca36"/>
<polygon points="92.6,81.9 114.8,93.1 89.3,90.3" fill="#dfbd32"/>
<polygon points="117.7,77.4 139.3,77.3 141.2,84.4" fill="#d9b730"/>
<polygon points="141.2,84.4 164.4,81.7 167.8,90.1" fill="#e5c234"/>
<polygon points="139.3,77.3 164.4,81.7 141.2,84.4" fill="#d9b830"/>
<polygon points="142.8,171.9 142.8,101.9 169.0,98.8" fill="#f1cc37"/>
<polygon points="97.6,75.1 117.7,77.4 116.0,84.5" fill="#d5b52f"/>
<polygon points="97.6,75.1 116.0,84.5 92.6,81.9" fill="#d5b52f"/>
<polygon points="88.1,169.0 88.1,99.0 114.4,102.0" fill="#eac635"/>
<polygon points="114.4,171.9 142.8,101.9 142.8,171.9" fill="#f0cb36"/>
<polygon points="119.7,72.8 139.3,77.3 117.7,77.4" fill="#d1b12e"/>
<polygon points="139.3,77.3 159.3,75.0 164.4,81.7" fill="#d9b830"/>
<polygon points="69.6,84.9 89.3,90.3 88.1,99.0" fill="#debc31"/>
<polygon points="137.1,72.8 159.3,75.0 139.3,77.3" fill="#d1b12e"/>
<polygon points="88.1,169.0 114.4,102.0 114.4,171.9" fill="#eac635"/>
<polygon points="74.6,77.0 92.6,81.9 89.3,90.3" fill="#d7b630"/>
<polygon points="119.7,72.8 137.1,72.8 139.3,77.3" fill="#d1b12e"/>
<polygon points="167.8,90.1 188.9,93.2 169.0,98.8" fill="#ebc735"/>
<polygon points="164.4,81.7 187.1,84.6 167.8,90.1" fill="#e2c033"/>
<polygon points="103.4,71.0 117.7,77.4 97.6,75.1" fill="#d2b22e"/>
<polygon points="103.4,71.0 119.7,72.8 117.7,77.4" fill="#d2b22e"/>
<polygon points="142.8,171.9 169.0,98.8 169.0,168.8" fill="#f1cc37"/>
<polygon points="159.3,75.0 182.0,76.7 164.4,81.7" fill="#d7b630"/>
<polygon points="82.1,70.9 97.6,75.1 92.6,81.9" fill="#d0b02e"/>
<polygon points="142.4,179.5 114.4,171.9 142.8,171.9" fill="#f1cc37"/>
<polygon points="137.1,72.8 153.2,70.9 159.3,75.0" fill="#d1b12e"/>
<polygon points="74.6,77.0 89.3,90.3 69.6,84.9" fill="#d7b630"/>
<polygon points="69.6,84.9 88.1,99.0 67.8,93.5" fill="#debc31"/>
<polygon points="142.4,179.5 114.8,179.6 114.4,171.9" fill="#f1cc37"/>
<polygon points="167.8,90.1 187.1,84.6 188.9,93.2" fill="#ebc735"/>
<polygon points="119.7,72.8 134.9,69.7 137.1,72.8" fill="#d7b630"/>
<polygon points="169.0,168.8 169.0,98.8 188.9,93.2" fill="#eec936"/>
<polygon points="164.4,81.7 182.0,76.7 187.1,84.6" fill="#e2c033"/>
<polygon points="82.1,70.9 92.6,81.9 74.6,77.0" fill="#d0b02e"/>
<polygon points="114.8,179.6 88.1,169.0 114.4,171.9" fill="#ebc735"/>
<polygon points="103.4,71.0 121.7,69.8 119.7,72.8" fill="#d7b630"/>
<polygon points="153.2,70.9 174.4,70.7 159.3,75.0" fill="#d1b12e"/>
<polygon points="167.8,176.5 142.4,179.5 142.8,171.9" fill="#f2cd37"/>
<polygon points="134.9,69.7 121.7,48.2 134.9,48.2" fill="#f0cb36"/>
<polygon points="141.2,184.9 114.8,179.6 142.4,179.5" fill="#edc936"/>
<polygon points="119.7,72.8 121.7,69.8 134.9,69.7" fill="#d7b630"/>
<polygon points="159.3,75.0 174.4,70.7 182.0,76.7" fill="#d7b630"/>
<polygon points="137.1,72.8 146.9,68.3 153.2,70.9" fill="#d7b630"/>
<polygon points="91.0,67.6 103.4,71.0 97.6,75.1" fill="#d4b32f"/>
<polygon points="121.7,48.2 132.6,45.2 134.9,48.2" fill="#d7b630"/>
<polygon points="121.7,69.8 109.6,46.9 121.7,48.2" fill="#eac635"/>
<polygon points="134.9,69.7 121.7,69.8 121.7,48.2" fill="#f0cb36"/>
<polygon points="167.8,176.5 142.8,171.9 169.0,168.8" fill="#f2cd37"/>
<polygon points="137.1,72.8 134.9,69.7 146.9,68.3" fill="#d7b630"/>
<polygon points="67.8,163.5 67.8,93.5 88.1,99.0" fill="#e0bd32"/>
<polygon points="109.6,46.9 123.8,45.2 121.7,48.2" fill="#d7b630"/>
<polygon points="141.2,184.9 116.0,184.9 114.8,179.6" fill="#edc936"/>
<polygon points="114.8,179.6 89.3,176.7 88.1,169.0" fill="#ebc735"/>
<polygon points="91.0,67.6 97.6,75.1 82.1,70.9" fill="#d4b32f"/>
<polygon points="67.8,163.5 88.1,99.0 88.1,169.0" fill="#e0bd32"/>
<polygon points="146.9,68.3 134.9,48.2 146.9,46.8" fill="#f1cc37"/>
<polygon points="116.0,184.9 89.3,176.7 114.8,179.6" fill="#e9c535"/>
<polygon points="146.9,68.3 134.9,69.7 134.9,48.2" fill="#f1cc37"/>
<polygon points="103.4,71.0 109.6,68.4 121.7,69.8" fill="#d7b630"/>
<polygon points="134.9,48.2 140.6,44.2 146.9,46.8" fill="#d7b630"/>
<polygon points="121.7,48.2 123.8,45.2 132.6,45.2" fill="#d7b630"/>
<polygon points="121.7,69.8 109.6,68.4 109.6,46.9" fill="#eac635"/>
<polygon points="134.9,48.2 132.6,45.2 140.6,44.2" fill="#d7b630"/>
<polygon points="164.4,182.1 141.2,184.9 142.4,179.5" fill="#eeca36"/>
<polygon points="153.2,70.9 165.5,67.4 174.4,70.7" fill="#d1b12e"/>
<polygon points="91.0,67.6 109.6,68.4 103.4,71.0" fill="#d7b630"/>
<polygon points="164.4,182.1 142.4,179.5 167.8,176.5" fill="#eeca36"/>
<polygon points="109.6,46.9 115.7,44.3 123.8,45.2" fill="#d7b630"/>
<polygon points="109.6,68.4 100.2,44.4 109.6,46.9" fill="#e0bd32"/>
<polygon points="100.2,44.4 115.7,44.3 109.6,46.9" fill="#d7b630"/>
<polygon points="139.3,187.1 116.0,184.9 141.2,184.9" fill="#e6c334"/>
<polygon points="153.2,70.9 146.9,68.3 156.1,65.7" fill="#d7b630"/>
<polygon points="116.0,184.9 92.6,182.3 89.3,176.7" fill="#e9c535"/>
<polygon points="64.8,70.6 74.6,77.0 69.6,84.9" fill="#d1b12e"/>
<polygon points="58.8,77.9 69.6,84.9 67.8,93.5" fill="#d0b02e"/>
<polygon points="156.1,65.7 146.9,68.3 146.9,46.8" fill="#eec936"/>
<polygon points="153.2,70.9 156.1,65.7 165.5,67.4" fill="#d7b630"/>
<polygon points="132.6,45.2 123.8,45.2 123.8,66.7" fill="#f0cb36"/>
<polygon points="169.0,168.8 188.9,93.2 188.9,163.2" fill="#eec936"/>
<polygon points="146.9,46.8 140.6,44.2 146.7,42.5" fill="#d7b630"/>
<polygon points="146.9,46.8 146.7,42.5 156.1,44.2" fill="#d7b630"/>
<polygon points="156.1,65.7 146.9,46.8 156.1,44.2" fill="#eec936"/>
<polygon points="182.0,76.7 197.4,77.6 187.1,84.6" fill="#dcba31"/>
<polygon points="89.3,176.7 67.8,163.5 88.1,169.0" fill="#e1bf32"/>
<polygon points="73.6,65.4 82.1,70.9 74.6,77.0" fill="#d4b32f"/>
<polygon points="187.1,84.6 199.5,85.9 188.9,93.2" fill="#e3c033"/>
<polygon points="140.6,44.2 132.6,45.2 132.6,66.7" fill="#f1cc37"/>
<polygon points="117.7,187.1 92.6,182.3 116.0,184.9" fill="#e3c033"/>
<polygon points="139.3,187.1 117.7,187.1 116.0,184.9" fill="#e6c334"/>
<polygon points="174.4,70.7 191.5,70.3 182.0,76.7" fill="#d3b22f"/>
<polygon points="109.6,68.4 100.2,65.9 100.2,44.4" fill="#e0bd32"/>
<polygon points="123.8,45.2 115.7,44.3 115.7,65.8" fill="#eac635"/>
<polygon points="132.6,45.2 123.8,66.7 132.6,66.7" fill="#f0cb36"/>
<polygon points="91.0,67.6 100.2,65.9 109.6,68.4" fill="#d7b630"/>
<polygon points="187.1,171.1 167.8,176.5 169.0,168.8" fill="#eeca36"/>
<polygon points="100.2,44.4 109.5,42.6 115.7,44.3" fill="#d7b630"/>
<polygon points="123.8,45.2 115.7,65.8 123.8,66.7" fill="#eac635"/>
<polygon points="140.6,44.2 132.6,66.7 140.6,65.8" fill="#f1cc37"/>
<polygon points="159.3,184.7 141.2,184.9 164.4,182.1" fill="#e6c334"/>
<polygon points="84.1,63.2 91.0,67.6 82.1,70.9" fill="#d6b52f"/>
<polygon points="159.3,184.7 139.3,187.1 141.2,184.9" fill="#e6c334"/>
<polygon points="165.5,67.4 182.6,65.2 174.4,70.7" fill="#d3b22f"/>
<polygon points="146.7,42.5 140.6,44.2 140.6,65.8" fill="#eec936"/>
<polygon points="92.6,182.3 69.6,171.4 89.3,176.7" fill="#e1be32"/>
<polygon points="95.1,41.0 109.5,42.6 100.2,44.4" fill="#d7b630"/>
<polygon points="100.2,65.9 95.1,41.0 100.2,44.4" fill="#d2b22e"/>
<polygon points="64.8,70.6 69.6,84.9 58.8,77.9" fill="#d1b12e"/>
<polygon points="115.7,44.3 109.5,42.6 109.5,64.1" fill="#e0bd32"/>
<polygon points="73.6,65.4 74.6,77.0 64.8,70.6" fill="#d4b32f"/>
<polygon points="115.7,44.3 109.5,64.1 115.7,65.8" fill="#e0bd32"/>
<polygon points="117.7,187.1 97.6,184.9 92.6,182.3" fill="#e3c033"/>
<polygon points="187.1,171.1 169.0,168.8 188.9,163.2" fill="#eeca36"/>
<polygon points="156.1,44.2 146.7,42.5 150.0,40.3" fill="#d7b630"/>
<polygon points="182.0,177.2 164.4,182.1 167.8,176.5" fill="#ecc735"/>
<polygon points="58.8,77.9 67.8,93.5 56.7,86.3" fill="#d0b02e"/>
<polygon points="84.1,63.2 100.2,65.9 91.0,67.6" fill="#d7b630"/>
<polygon points="188.9,163.2 188.9,93.2 199.5,85.9" fill="#e5c234"/>
<polygon points="182.0,76.7 191.5,70.3 197.4,77.6" fill="#dcba31"/>
<polygon points="89.3,176.7 69.6,171.4 67.8,163.5" fill="#e1bf32"/>
<polygon points="137.1,185.8 117.7,187.1 139.3,187.1" fill="#dcba31"/>
<polygon points="187.1,84.6 197.4,77.6 199.5,85.9" fill="#e3c033"/>
<polygon points="84.1,63.2 82.1,70.9 73.6,65.4" fill="#d6b52f"/>
<polygon points="174.4,70.7 182.6,65.2 191.5,70.3" fill="#d3b22f"/>
<polygon points="161.0,62.4 156.1,65.7 156.1,44.2" fill="#e5c234"/>
<polygon points="146.7,42.5 140.6,65.8 146.7,64.0" fill="#eec936"/>
<polygon points="165.5,67.4 156.1,65.7 161.0,62.4" fill="#d7b630"/>
<polygon points="156.1,44.2 150.0,40.3 161.0,40.9" fill="#d7b630"/>
<polygon points="134.9,91.3 121.7,91.3 121.7,199.0" fill="#f0cb36"/>
<polygon points="121.7,91.3 134.9,91.3 128.0,82.2" fill="#d7b630"/>
<polygon points="119.7,185.9 97.6,184.9 117.7,187.1" fill="#dbb931"/>
<polygon points="128.0,60.7 132.6,66.7 123.8,66.7" fill="#d7b630"/>
<polygon points="161.0,62.4 156.1,44.2 161.0,40.9" fill="#e5c234"/>
<polygon points="95.1,41.0 106.1,40.4 109.5,42.6" fill="#d7b630"/>
<polygon points="165.5,67.4 172.0,63.0 182.6,65.2" fill="#d3b22f"/>
<polygon points="146.9,89.9 134.9,91.3 134.9,198.9" fill="#f1cc37"/>
<polygon points="109.6,90.0 121.7,91.3 128.0,82.2" fill="#d7b630"/>
<polygon points="150.0,40.3 146.7,42.5 146.7,64.0" fill="#e5c234"/>
<polygon points="137.1,185.8 119.7,185.9 117.7,187.1" fill="#dcba31"/>
<polygon points="134.9,91.3 146.9,89.9 128.0,82.2" fill="#d7b630"/>
<polygon points="182.0,177.2 167.8,176.5 187.1,171.1" fill="#ecc735"/>
<polygon points="128.0,60.7 123.8,66.7 115.7,65.8" fill="#d7b630"/>
<polygon points="128.0,60.7 140.6,65.8 132.6,66.7" fill="#d7b630"/>
<polygon points="97.6,184.9 74.6,177.4 92.6,182.3" fill="#debc32"/>
<polygon points="165.5,67.4 161.0,62.4 172.0,63.0" fill="#d7b630"/>
<polygon points="100.2,65.9 95.1,62.5 95.1,41.0" fill="#d2b22e"/>
<polygon points="121.7,91.3 109.6,90.0 109.6,197.6" fill="#eac635"/>
<polygon points="153.2,183.9 139.3,187.1 159.3,184.7" fill="#dcbb31"/>
<polygon points="92.6,182.3 74.6,177.4 69.6,171.4" fill="#e1be32"/>
<polygon points="109.5,42.6 106.1,61.9 109.5,64.1" fill="#d2b22e"/>
<polygon points="56.7,156.3 67.8,93.5 67.8,163.5" fill="#d2b22e"/>
<polygon points="84.1,63.2 95.1,62.5 100.2,65.9" fill="#d7b630"/>
<polygon points="109.5,42.6 106.1,40.4 106.1,61.9" fill="#d2b22e"/>
<polygon points="153.2,183.9 137.1,185.8 139.3,187.1" fill="#dcbb31"/>
<polygon points="128.0,60.7 115.7,65.8 109.5,64.1" fill="#d7b630"/>
<polygon points="174.4,180.5 159.3,184.7 164.4,182.1" fill="#e5c233"/>
<polygon points="128.0,60.7 146.7,64.0 140.6,65.8" fill="#d7b630"/>
<polygon points="56.7,156.3 56.7,86.3 67.8,93.5" fill="#d2b22e"/>
<polygon points="100.2,87.4 109.6,90.0 128.0,82.2" fill="#d7b630"/>
<polygon points="150.0,40.3 146.7,64.0 150.0,61.8" fill="#e5c234"/>
<polygon points="119.7,185.9 103.4,184.0 97.6,184.9" fill="#dbb931"/>
<polygon points="146.9,89.9 156.1,87.3 128.0,82.2" fill="#d7b630"/>
<polygon points="137.1,202.0 119.7,185.9 137.1,185.8" fill="#f0cb36"/>
<polygon points="161.0,40.9 150.0,40.3 149.9,37.9" fill="#d7b630"/>
<polygon points="95.0,37.4 106.1,40.4 95.1,41.0" fill="#d7b630"/>
<polygon points="156.1,87.3 146.9,89.9 146.9,197.5" fill="#eec936"/>
<polygon points="174.4,180.5 164.4,182.1 182.0,177.2" fill="#e5c233"/>
<polygon points="137.1,202.0 119.7,202.0 119.7,185.9" fill="#f0cb36"/>
<polygon points="95.1,62.5 95.0,37.4 95.1,41.0" fill="#d9b830"/>
<polygon points="119.7,202.0 103.4,184.0 119.7,185.9" fill="#eac635"/>
<polygon points="128.0,60.7 109.5,64.1 106.1,61.9" fill="#d7b630"/>
<polygon points="149.9,37.9 150.0,40.3 150.0,61.8" fill="#d9b830"/>
<polygon points="128.0,60.7 150.0,61.8 146.7,64.0" fill="#d7b630"/>
<polygon points="97.6,184.9 82.1,180.7 74.6,177.4" fill="#debc32"/>
<polygon points="134.9,91.3 121.7,199.0 134.9,198.9" fill="#f0cb36"/>
<polygon points="103.4,184.0 82.1,180.7 97.6,184.9" fill="#d9b830"/>
<polygon points="109.6,90.0 100.2,87.4 100.2,195.1" fill="#e0bd32"/>
<polygon points="161.0,40.9 149.9,37.9 160.9,37.2" fill="#d7b630"/>
<polygon points="153.2,200.1 137.1,202.0 137.1,185.8" fill="#f1cc37"/>
<polygon points="95.0,37.4 106.0,38.0 106.1,40.4" fill="#d7b630"/>
<polygon points="160.9,58.8 161.0,62.4 161.0,40.9" fill="#d9b830"/>
<polygon points="84.0,58.3 84.1,63.2 73.6,65.4" fill="#d8b730"/>
<polygon points="153.2,200.1 137.1,185.8 153.2,183.9" fill="#f1cc37"/>
<polygon points="106.1,40.4 106.0,59.5 106.1,61.9" fill="#d9b830"/>
<polygon points="73.4,59.4 73.6,65.4 64.8,70.6" fill="#dbb931"/>
<polygon points="69.6,171.4 56.7,156.3 67.8,163.5" fill="#d4b32f"/>
<polygon points="121.7,91.3 109.6,197.6 121.7,199.0" fill="#eac635"/>
<polygon points="106.1,40.4 106.0,38.0 106.0,59.5" fill="#d9b830"/>
<polygon points="119.7,202.0 103.4,200.2 103.4,184.0" fill="#eac635"/>
<polygon points="64.5,63.6 64.8,70.6 58.8,77.9" fill="#dcba31"/>
<polygon points="172.0,63.0 161.0,62.4 160.9,58.8" fill="#d7b630"/>
<polygon points="84.0,58.3 95.1,62.5 84.1,63.2" fill="#d7b630"/>
<polygon points="165.5,180.5 153.2,183.9 159.3,184.7" fill="#dcba31"/>
<polygon points="95.1,84.1 100.2,87.4 128.0,82.2" fill="#d7b630"/>
<polygon points="172.0,63.0 182.4,59.2 182.6,65.2" fill="#d5b42f"/>
<polygon points="188.9,163.2 199.5,85.9 199.5,155.9" fill="#e5c234"/>
<polygon points="160.9,58.8 161.0,40.9 160.9,37.2" fill="#d9b830"/>
<polygon points="156.1,87.3 161.0,83.9 128.0,82.2" fill="#d7b630"/>
<polygon points="137.1,202.0 121.7,199.0 119.7,202.0" fill="#d7b630"/>
<polygon points="182.6,65.2 191.2,63.3 191.5,70.3" fill="#d1b02e"/>
<polygon points="197.4,164.0 187.1,171.1 188.9,163.2" fill="#e7c334"/>
<polygon points="146.9,89.9 134.9,198.9 146.9,197.5" fill="#f1cc37"/>
<polygon points="58.6,70.3 58.8,77.9 56.7,86.3" fill="#dbb931"/>
<polygon points="149.9,37.9 150.0,61.8 149.9,59.4" fill="#d9b830"/>
<polygon points="191.5,70.3 197.2,70.0 197.4,77.6" fill="#d2b22e"/>
<polygon points="95.1,62.5 95.0,58.9 95.0,37.4" fill="#d9b830"/>
<polygon points="128.0,60.7 106.1,61.9 106.0,59.5" fill="#d7b630"/>
<polygon points="165.5,180.5 159.3,184.7 174.4,180.5" fill="#dcba31"/>
<polygon points="128.0,60.7 149.9,59.4 150.0,61.8" fill="#d7b630"/>
<polygon points="74.6,177.4 58.8,164.4 69.6,171.4" fill="#d7b630"/>
<polygon points="153.2,200.1 134.9,198.9 137.1,202.0" fill="#d7b630"/>
<polygon points="160.9,37.2 149.9,37.9 146.5,35.6" fill="#d7b630"/>
<polygon points="197.4,77.6 199.3,78.1 199.5,85.9" fill="#d7b630"/>
<polygon points="103.4,200.2 91.0,180.7 103.4,184.0" fill="#e0bd32"/>
<polygon points="137.1,202.0 134.9,198.9 121.7,199.0" fill="#d7b630"/>
<polygon points="119.7,202.0 109.6,197.6 103.4,200.2" fill="#d7b630"/>
<polygon points="103.4,184.0 91.0,180.7 82.1,180.7" fill="#d9b830"/>
<polygon points="191.5,170.7 182.0,177.2 187.1,171.1" fill="#e5c234"/>
<polygon points="172.0,63.0 160.9,58.8 171.9,58.1" fill="#d7b630"/>
<polygon points="84.0,58.3 95.0,58.9 95.1,62.5" fill="#d7b630"/>
<polygon points="84.0,58.3 73.6,65.4 73.4,59.4" fill="#d8b730"/>
<polygon points="161.0,83.9 156.1,87.3 156.1,194.9" fill="#e5c234"/>
<polygon points="109.6,90.0 100.2,195.1 109.6,197.6" fill="#e0bd32"/>
<polygon points="146.5,35.6 149.9,37.9 149.9,59.4" fill="#d2b22e"/>
<polygon points="99.9,34.0 106.0,38.0 95.0,37.4" fill="#d7b630"/>
<polygon points="119.7,202.0 121.7,199.0 109.6,197.6" fill="#d7b630"/>
<polygon points="165.5,196.6 153.2,200.1 153.2,183.9" fill="#eec936"/>
<polygon points="172.0,63.0 171.9,58.1 182.4,59.2" fill="#d5b42f"/>
<polygon points="73.4,59.4 64.8,70.6 64.5,63.6" fill="#dbb931"/>
<polygon points="106.0,38.0 109.3,57.3 106.0,59.5" fill="#e5c234"/>
<polygon points="99.9,34.0 109.3,35.7 106.0,38.0" fill="#d7b630"/>
<polygon points="106.0,38.0 109.3,35.7 109.3,57.3" fill="#e5c234"/>
<polygon points="82.1,180.7 64.8,171.0 74.6,177.4" fill="#d7b630"/>
<polygon points="128.0,60.7 106.0,59.5 109.3,57.3" fill="#d7b630"/>
<polygon points="182.6,65.2 182.4,59.2 191.2,63.3" fill="#d1b02e"/>
<polygon points="128.0,60.7 146.5,57.2 149.9,59.4" fill="#d7b630"/>
<polygon points="197.4,164.0 188.9,163.2 199.5,155.9" fill="#e7c334"/>
<polygon points="69.6,171.4 58.8,164.4 56.7,156.3" fill="#d4b32f"/>
<polygon points="95.0,58.9 99.9,34.0 95.0,37.4" fill="#e5c234"/>
<polygon points="153.2,200.1 146.9,197.5 134.9,198.9" fill="#d7b630"/>
<polygon points="95.0,80.5 95.1,84.1 128.0,82.2" fill="#d7b630"/>
<polygon points="100.2,87.4 95.1,84.1 95.1,191.7" fill="#d2b22e"/>
<polygon points="160.9,37.2 146.5,35.6 155.8,33.9" fill="#d7b630"/>
<polygon points="156.1,87.3 146.9,197.5 156.1,194.9" fill="#eec936"/>
<polygon points="161.0,83.9 160.9,80.3 128.0,82.2" fill="#d7b630"/>
<polygon points="165.5,196.6 153.2,183.9 165.5,180.5" fill="#eec936"/>
<polygon points="64.5,63.6 58.8,77.9 58.6,70.3" fill="#dcba31"/>
<polygon points="182.6,174.9 174.4,180.5 182.0,177.2" fill="#e1be32"/>
<polygon points="103.4,200.2 91.0,196.8 91.0,180.7" fill="#e0bd32"/>
<polygon points="191.5,70.3 191.2,63.3 197.2,70.0" fill="#d2b22e"/>
<polygon points="146.5,35.6 149.9,59.4 146.5,57.2" fill="#d2b22e"/>
<polygon points="155.8,55.4 160.9,58.8 160.9,37.2" fill="#d2b22e"/>
<polygon points="165.5,196.6 146.9,197.5 153.2,200.1" fill="#d7b630"/>
<polygon points="191.5,170.7 187.1,171.1 197.4,164.0" fill="#e5c234"/>
<polygon points="199.5,155.9 199.5,85.9 199.3,78.1" fill="#d9b830"/>
<polygon points="58.6,70.3 56.7,86.3 56.5,78.4" fill="#dbb931"/>
<polygon points="74.6,177.4 64.8,171.0 58.8,164.4" fill="#d7b630"/>
<polygon points="197.4,77.6 197.2,70.0 199.3,78.1" fill="#d7b630"/>
<polygon points="128.0,60.7 109.3,57.3 115.4,55.5" fill="#d7b630"/>
<polygon points="155.8,33.9 146.5,35.6 140.3,33.9" fill="#d7b630"/>
<polygon points="140.3,33.9 146.5,35.6 146.5,57.2" fill="#e0bd32"/>
<polygon points="128.0,60.7 140.3,55.5 146.5,57.2" fill="#d7b630"/>
<polygon points="103.4,200.2 109.6,197.6 100.2,195.1" fill="#d7b630"/>
<polygon points="155.8,55.4 160.9,37.2 155.8,33.9" fill="#d2b22e"/>
<polygon points="91.0,180.7 73.6,175.2 82.1,180.7" fill="#d7b630"/>
<polygon points="103.4,200.2 100.2,195.1 91.0,196.8" fill="#d7b630"/>
<polygon points="171.9,58.1 160.9,58.8 155.8,55.4" fill="#d7b630"/>
<polygon points="109.3,35.7 115.4,34.0 115.4,55.5" fill="#eec936"/>
<polygon points="109.3,35.7 115.4,55.5 109.3,57.3" fill="#eec936"/>
<polygon points="95.0,58.9 99.9,55.6 99.9,34.0" fill="#e5c234"/>
<polygon points="172.0,176.0 165.5,180.5 174.4,180.5" fill="#dab931"/>
<polygon points="100.2,87.4 95.1,191.7 100.2,195.1" fill="#d2b22e"/>
<polygon points="109.1,31.4 109.3,35.7 99.9,34.0" fill="#d7b630"/>
<polygon points="90.5,53.9 95.0,58.9 84.0,58.3" fill="#d7b630"/>
<polygon points="109.1,31.4 115.4,34.0 109.3,35.7" fill="#d7b630"/>
<polygon points="182.6,174.9 182.0,177.2 191.5,170.7" fill="#e1be32"/>
<polygon points="128.0,60.7 115.4,55.5 123.4,54.6" fill="#d7b630"/>
<polygon points="128.0,60.7 132.2,54.6 140.3,55.5" fill="#d7b630"/>
<polygon points="82.1,180.7 73.6,175.2 64.8,171.0" fill="#d7b630"/>
<polygon points="140.3,33.9 146.5,57.2 140.3,55.5" fill="#e0bd32"/>
<polygon points="90.5,53.9 84.0,58.3 73.4,59.4" fill="#dab931"/>
<polygon points="128.0,60.7 123.4,54.6 132.2,54.6" fill="#d7b630"/>
<polygon points="99.9,77.1 95.0,80.5 128.0,82.2" fill="#d7b630"/>
<polygon points="56.5,148.4 56.7,86.3 56.7,156.3" fill="#d9b830"/>
<polygon points="160.9,80.3 155.8,77.0 128.0,82.2" fill="#d7b630"/>
<polygon points="165.5,196.6 156.1,194.9 146.9,197.5" fill="#d7b630"/>
<polygon points="160.9,80.3 161.0,83.9 161.0,191.6" fill="#d9b830"/>
<polygon points="155.8,33.9 140.3,33.9 146.4,31.4" fill="#d7b630"/>
<polygon points="132.2,33.0 140.3,33.9 140.3,55.5" fill="#eac635"/>
<polygon points="91.0,196.8 84.1,176.2 91.0,180.7" fill="#d2b22e"/>
<polygon points="90.5,53.9 99.9,55.6 95.0,58.9" fill="#d7b630"/>
<polygon points="115.4,34.0 123.4,33.1 123.4,54.6" fill="#f1cc37"/>
<polygon points="146.4,31.4 140.3,33.9 132.2,33.0" fill="#d7b630"/>
<polygon points="172.0,176.0 174.4,180.5 182.6,174.9" fill="#dab931"/>
<polygon points="99.9,55.6 109.1,31.4 99.9,34.0" fill="#eec936"/>
<polygon points="115.4,34.0 123.4,54.6 115.4,55.5" fill="#f1cc37"/>
<polygon points="56.5,148.4 56.5,78.4 56.7,86.3" fill="#d9b830"/>
<polygon points="171.9,58.1 173.9,53.7 182.4,59.2" fill="#d7b630"/>
<polygon points="161.0,83.9 156.1,194.9 161.0,191.6" fill="#e5c234"/>
<polygon points="123.4,33.1 132.2,33.0 132.2,54.6" fill="#f0cb36"/>
<polygon points="171.9,58.1 155.8,55.4 165.0,53.7" fill="#d7b630"/>
<polygon points="172.0,192.1 165.5,196.6 165.5,180.5" fill="#e5c234"/>
<polygon points="121.1,30.0 123.4,33.1 115.4,34.0" fill="#d7b630"/>
<polygon points="91.0,180.7 84.1,176.2 73.6,175.2" fill="#d7b630"/>
<polygon points="81.6,53.9 73.4,59.4 64.5,63.6" fill="#e1be32"/>
<polygon points="132.2,33.0 140.3,55.5 132.2,54.6" fill="#eac635"/>
<polygon points="95.1,84.1 95.0,80.5 95.0,188.1" fill="#d9b830"/>
<polygon points="134.3,30.0 132.2,33.0 123.4,33.1" fill="#d7b630"/>
<polygon points="123.4,33.1 132.2,54.6 123.4,54.6" fill="#f0cb36"/>
<polygon points="146.4,52.9 155.8,55.4 155.8,33.9" fill="#e0bd32"/>
<polygon points="121.1,30.0 115.4,34.0 109.1,31.4" fill="#d7b630"/>
<polygon points="146.4,52.9 155.8,33.9 146.4,31.4" fill="#e0bd32"/>
<polygon points="146.4,31.4 132.2,33.0 134.3,30.0" fill="#d7b630"/>
<polygon points="172.0,192.1 156.1,194.9 165.5,196.6" fill="#d7b630"/>
<polygon points="91.0,196.8 100.2,195.1 95.1,191.7" fill="#d7b630"/>
<polygon points="172.0,192.1 165.5,180.5 172.0,176.0" fill="#e5c234"/>
<polygon points="182.4,59.2 181.4,56.9 191.2,63.3" fill="#d7b630"/>
<polygon points="109.1,74.5 99.9,77.1 128.0,82.2" fill="#d7b630"/>
<polygon points="171.9,58.1 165.0,53.7 173.9,53.7" fill="#d7b630"/>
<polygon points="90.5,53.9 73.4,59.4 81.6,53.9" fill="#dab931"/>
<polygon points="155.8,77.0 146.4,74.4 128.0,82.2" fill="#d7b630"/>
<polygon points="99.9,55.6 109.1,53.0 109.1,31.4" fill="#eec936"/>
<polygon points="91.0,196.8 84.1,192.4 84.1,176.2" fill="#d2b22e"/>
<polygon points="74.0,57.2 64.5,63.6 58.6,70.3" fill="#e5c234"/>
<polygon points="134.3,30.0 123.4,33.1 121.1,30.0" fill="#d7b630"/>
<polygon points="58.8,164.4 56.5,148.4 56.7,156.3" fill="#d7b630"/>
<polygon points="165.0,53.7 155.8,55.4 146.4,52.9" fill="#d7b630"/>
<polygon points="91.0,196.8 95.1,191.7 84.1,192.4" fill="#d7b630"/>
<polygon points="197.2,156.4 197.4,164.0 199.5,155.9" fill="#dbb931"/>
<polygon points="109.1,53.0 121.1,30.0 109.1,31.4" fill="#f1cc37"/>
<polygon points="95.1,84.1 95.0,188.1 95.1,191.7" fill="#d9b830"/>
<polygon points="64.8,171.0 58.6,156.8 58.8,164.4" fill="#d2b22e"/>
<polygon points="191.2,63.3 186.4,62.9 197.2,70.0" fill="#d7b630"/>
<polygon points="199.5,155.9 199.3,78.1 199.3,148.1" fill="#d9b830"/>
<polygon points="68.9,63.2 58.6,70.3 56.5,78.4" fill="#e7c334"/>
<polygon points="121.1,73.1 109.1,74.5 128.0,82.2" fill="#d7b630"/>
<polygon points="102.8,50.4 99.9,55.6 90.5,53.9" fill="#d7b630"/>
<polygon points="146.4,74.4 134.3,73.1 128.0,82.2" fill="#d7b630"/>
<polygon points="134.3,51.5 146.4,31.4 134.3,30.0" fill="#eac635"/>
<polygon points="191.2,163.7 191.5,170.7 197.4,164.0" fill="#dcba31"/>
<polygon points="182.4,59.2 173.9,53.7 181.4,56.9" fill="#d7b630"/>
<polygon points="81.6,53.9 64.5,63.6 74.0,57.2" fill="#e1be32"/>
<polygon points="134.3,51.5 146.4,52.9 146.4,31.4" fill="#eac635"/>
<polygon points="172.0,192.1 161.0,191.6 156.1,194.9" fill="#d7b630"/>
<polygon points="102.8,50.4 109.1,53.0 99.9,55.6" fill="#d7b630"/>
<polygon points="155.8,77.0 160.9,80.3 160.9,187.9" fill="#d2b22e"/>
<polygon points="73.6,175.2 64.5,164.1 64.8,171.0" fill="#d1b02e"/>
<polygon points="134.3,73.1 121.1,73.1 128.0,82.2" fill="#d7b630"/>
<polygon points="121.1,51.6 134.3,30.0 121.1,30.0" fill="#f0cb36"/>
<polygon points="197.2,70.0 188.2,70.9 199.3,78.1" fill="#d4b32f"/>
<polygon points="109.1,53.0 121.1,51.6 121.1,30.0" fill="#f1cc37"/>
<polygon points="182.4,168.9 182.6,174.9 191.5,170.7" fill="#dbb931"/>
<polygon points="84.1,176.2 73.4,169.2 73.6,175.2" fill="#d5b42f"/>
<polygon points="165.0,53.7 146.4,52.9 152.6,50.3" fill="#d7b630"/>
<polygon points="160.9,80.3 161.0,191.6 160.9,187.9" fill="#d9b830"/>
<polygon points="171.9,171.2 172.0,176.0 182.6,174.9" fill="#d8b730"/>
<polygon points="121.1,51.6 134.3,51.5 134.3,30.0" fill="#f0cb36"/>
<polygon points="102.8,50.4 90.5,53.9 81.6,53.9" fill="#dcba31"/>
<polygon points="95.0,80.5 99.9,77.1 99.9,184.7" fill="#e5c234"/>
<polygon points="84.1,192.4 84.0,171.4 84.1,176.2" fill="#d9b830"/>
<polygon points="191.2,63.3 181.4,56.9 186.4,62.9" fill="#d7b630"/>
<polygon points="74.0,57.2 58.6,70.3 68.9,63.2" fill="#e5c234"/>
<polygon points="152.6,50.3 146.4,52.9 134.3,51.5" fill="#d7b630"/>
<polygon points="58.8,164.4 58.6,156.8 56.5,148.4" fill="#d7b630"/>
<polygon points="197.2,156.4 199.5,155.9 199.3,148.1" fill="#dbb931"/>
<polygon points="171.9,187.3 172.0,192.1 172.0,176.0" fill="#d9b830"/>
<polygon points="165.0,53.7 158.4,49.5 173.9,53.7" fill="#d9b830"/>
<polygon points="118.9,48.5 121.1,51.6 109.1,53.0" fill="#d7b630"/>
<polygon points="64.8,171.0 64.5,164.1 58.6,156.8" fill="#d2b22e"/>
<polygon points="191.2,163.7 197.4,164.0 197.2,156.4" fill="#dcba31"/>
<polygon points="84.1,192.4 95.1,191.7 95.0,188.1" fill="#d7b630"/>
<polygon points="118.9,48.5 109.1,53.0 102.8,50.4" fill="#d7b630"/>
<polygon points="68.9,63.2 56.5,78.4 67.1,71.2" fill="#e7c334"/>
<polygon points="197.2,70.0 186.4,62.9 188.2,70.9" fill="#d4b32f"/>
<polygon points="165.0,53.7 152.6,50.3 158.4,49.5" fill="#d9b830"/>
<polygon points="73.6,175.2 73.4,169.2 64.5,164.1" fill="#d1b02e"/>
<polygon points="182.4,168.9 191.5,170.7 191.2,163.7" fill="#dbb931"/>
<polygon points="136.3,48.5 134.3,51.5 121.1,51.6" fill="#d7b630"/>
<polygon points="171.9,187.3 161.0,191.6 172.0,192.1" fill="#d7b630"/>
<polygon points="84.1,176.2 84.0,171.4 73.4,169.2" fill="#d5b42f"/>
<polygon points="171.9,171.2 182.6,174.9 182.4,168.9" fill="#d8b730"/>
<polygon points="199.3,148.1 199.3,78.1 188.2,70.9" fill="#d2b22e"/>
<polygon points="102.8,50.4 81.6,53.9 96.7,49.6" fill="#dcba31"/>
<polygon points="152.6,50.3 134.3,51.5 136.3,48.5" fill="#d7b630"/>
<polygon points="96.7,49.6 81.6,53.9 74.0,57.2" fill="#e5c233"/>
<polygon points="95.0,80.5 99.9,184.7 95.0,188.1" fill="#e5c234"/>
<polygon points="171.9,187.3 172.0,176.0 171.9,171.2" fill="#d9b830"/>
<polygon points="146.4,74.4 155.8,77.0 155.8,184.6" fill="#e0bd32"/>
<polygon points="84.1,192.4 84.0,187.5 84.0,171.4" fill="#d9b830"/>
<polygon points="136.3,48.5 121.1,51.6 118.9,48.5" fill="#d7b630"/>
<polygon points="84.1,192.4 95.0,188.1 84.0,187.5" fill="#d7b630"/>
<polygon points="99.9,77.1 109.1,74.5 109.1,182.2" fill="#eec936"/>
<polygon points="171.9,187.3 160.9,187.9 161.0,191.6" fill="#d7b630"/>
<polygon points="173.9,53.7 163.4,52.0 181.4,56.9" fill="#debc32"/>
<polygon points="118.9,48.5 102.8,50.4 96.7,49.6" fill="#dcbb31"/>
<polygon points="67.1,141.1 56.5,78.4 56.5,148.4" fill="#e5c234"/>
<polygon points="155.8,77.0 160.9,187.9 155.8,184.6" fill="#d2b22e"/>
<polygon points="67.1,141.1 67.1,71.2 56.5,78.4" fill="#e5c234"/>
<polygon points="173.9,53.7 158.4,49.5 163.4,52.0" fill="#debc32"/>
<polygon points="91.6,52.2 74.0,57.2 68.9,63.2" fill="#ecc735"/>
<polygon points="152.6,50.3 136.3,48.5 138.3,47.2" fill="#dbb931"/>
<polygon points="96.7,49.6 74.0,57.2 91.6,52.2" fill="#e5c233"/>
<polygon points="152.6,50.3 138.3,47.2 158.4,49.5" fill="#dbb931"/>
<polygon points="134.3,73.1 146.4,74.4 146.4,182.1" fill="#eac635"/>
<polygon points="136.3,48.5 118.9,48.5 116.7,47.3" fill="#dcba31"/>
<polygon points="118.9,48.5 96.7,49.6 116.7,47.3" fill="#dcbb31"/>
<polygon points="109.1,74.5 121.1,73.1 121.1,180.7" fill="#f1cc37"/>
<polygon points="181.4,56.9 166.7,57.6 186.4,62.9" fill="#e1be32"/>
<polygon points="165.0,166.7 171.9,171.2 182.4,168.9" fill="#d6b52f"/>
<polygon points="84.0,187.5 90.5,166.9 84.0,171.4" fill="#e5c234"/>
<polygon points="99.9,77.1 109.1,182.2 99.9,184.7" fill="#eec936"/>
<polygon points="84.0,187.5 95.0,188.1 99.9,184.7" fill="#d7b630"/>
<polygon points="84.0,171.4 81.6,163.6 73.4,169.2" fill="#d3b22f"/>
<polygon points="121.1,73.1 134.3,73.1 134.3,180.7" fill="#f0cb36"/>
<polygon points="58.6,156.8 67.1,141.1 56.5,148.4" fill="#e3c033"/>
<polygon points="88.2,57.8 68.9,63.2 67.1,71.2" fill="#eeca36"/>
<polygon points="136.3,48.5 116.7,47.3 138.3,47.2" fill="#dcba31"/>
<polygon points="173.9,163.4 182.4,168.9 191.2,163.7" fill="#d4b32f"/>
<polygon points="165.0,182.9 171.9,187.3 171.9,171.2" fill="#d2b22e"/>
<polygon points="73.4,169.2 74.0,157.6 64.5,164.1" fill="#d3b22f"/>
<polygon points="64.5,164.1 68.9,149.7 58.6,156.8" fill="#dcba31"/>
<polygon points="186.4,149.4 197.2,156.4 199.3,148.1" fill="#d0b02e"/>
<polygon points="116.7,47.3 96.7,49.6 91.6,52.2" fill="#e6c334"/>
<polygon points="165.0,182.9 160.9,187.9 171.9,187.3" fill="#d7b630"/>
<polygon points="181.4,56.9 163.4,52.0 166.7,57.6" fill="#e1be32"/>
<polygon points="181.4,157.3 191.2,163.7 197.2,156.4" fill="#d1b12e"/>
<polygon points="199.3,148.1 188.2,70.9 188.2,140.8" fill="#d2b22e"/>
<polygon points="186.4,62.9 167.9,65.4 188.2,70.9" fill="#e1bf32"/>
<polygon points="146.4,74.4 155.8,184.6 146.4,182.1" fill="#e0bd32"/>
<polygon points="91.6,52.2 68.9,63.2 88.2,57.8" fill="#ecc735"/>
<polygon points="187.2,96.1 187.2,102.9 188.2,70.9" fill="#e0be32"/>
<polygon points="84.0,171.4 90.5,166.9 81.6,163.6" fill="#d3b22f"/>
<polygon points="182.2,94.8 187.2,96.1 188.2,70.9" fill="#e0bd32"/>
<polygon points="165.0,182.9 171.9,171.2 165.0,166.7" fill="#d2b22e"/>
<polygon points="165.0,182.9 155.8,184.6 160.9,187.9" fill="#d7b630"/>
<polygon points="84.0,187.5 99.9,184.7 90.5,183.0" fill="#d7b630"/>
<polygon points="158.4,49.5 138.3,47.2 140.0,49.4" fill="#e3c033"/>
<polygon points="158.4,49.5 140.0,49.4 163.4,52.0" fill="#e3c033"/>
<polygon points="165.0,166.7 182.4,168.9 173.9,163.4" fill="#d6b52f"/>
<polygon points="84.0,187.5 90.5,183.0 90.5,166.9" fill="#e5c234"/>
<polygon points="186.8,100.2 187.2,102.9 187.2,96.1" fill="#e0bd32"/>
<polygon points="185.7,97.7 186.8,100.2 187.2,96.1" fill="#e0bd32"/>
<polygon points="109.1,74.5 121.1,180.7 109.1,182.2" fill="#f1cc37"/>
<polygon points="184.1,95.8 185.7,97.7 187.2,96.1" fill="#e0bd32"/>
<polygon points="188.2,140.8 188.2,70.9 187.2,102.9" fill="#e0be32"/>
<polygon points="186.4,62.9 166.7,57.6 167.9,65.4" fill="#e1bf32"/>
<polygon points="188.2,70.9 177.2,93.4 182.2,94.8" fill="#e0bd32"/>
<polygon points="73.4,169.2 81.6,163.6 74.0,157.6" fill="#d3b22f"/>
<polygon points="138.3,47.2 116.7,47.3 114.8,49.5" fill="#e6c334"/>
<polygon points="116.7,47.3 91.6,52.2 114.8,49.5" fill="#e6c334"/>
<polygon points="88.2,57.8 67.1,71.2 87.0,65.6" fill="#eeca36"/>
<polygon points="182.2,94.8 184.1,95.8 187.2,96.1" fill="#e0bd32"/>
<polygon points="187.2,102.9 186.8,105.3 187.2,109.6" fill="#e0bd32"/>
<polygon points="134.3,73.1 146.4,182.1 134.3,180.7" fill="#eac635"/>
<polygon points="173.9,163.4 191.2,163.7 181.4,157.3" fill="#d4b32f"/>
<polygon points="182.2,101.5 187.2,102.9 186.8,100.2" fill="#18262f"/>
<polygon points="182.2,101.5 186.8,100.2 185.7,97.7" fill="#18262f"/>
<polygon points="58.6,156.8 68.9,149.7 67.1,141.1" fill="#e3c033"/>
<polygon points="64.5,164.1 74.0,157.6 68.9,149.7" fill="#dcba31"/>
<polygon points="186.4,149.4 199.3,148.1 188.2,140.8" fill="#d0b02e"/>
<polygon points="186.8,105.3 185.7,107.2 187.2,109.6" fill="#e0bd32"/>
<polygon points="182.2,101.5 186.8,105.3 187.2,102.9" fill="#18262f"/>
<polygon points="182.2,101.5 185.7,97.7 184.1,95.8" fill="#18262f"/>
<polygon points="188.2,70.9 167.9,65.4 177.2,93.4" fill="#e0bd32"/>
<polygon points="181.4,157.3 197.2,156.4 186.4,149.4" fill="#d1b12e"/>
<polygon points="121.1,73.1 134.3,180.7 121.1,180.7" fill="#f0cb36"/>
<polygon points="114.8,49.5 91.6,52.2 88.2,57.8" fill="#eeca36"/>
<polygon points="182.2,101.5 185.7,107.2 186.8,105.3" fill="#18262f"/>
<polygon points="182.2,101.5 184.1,95.8 182.2,94.8" fill="#18262f"/>
<polygon points="185.7,107.2 184.1,108.3 187.2,109.6" fill="#e0bd32"/>
<polygon points="138.3,47.2 114.8,49.5 140.0,49.4" fill="#e6c334"/>
<polygon points="188.2,140.8 187.2,102.9 187.2,109.6" fill="#e0be32"/>
<polygon points="90.5,183.0 99.9,184.7 109.1,182.2" fill="#d7b630"/>
<polygon points="182.2,101.5 184.1,108.3 185.7,107.2" fill="#18262f"/>
<polygon points="182.2,101.5 182.2,94.8 180.2,94.8" fill="#18262f"/>
<polygon points="184.1,108.3 182.2,108.2 187.2,109.6" fill="#e0bd32"/>
<polygon points="180.2,94.8 182.2,94.8 177.2,93.4" fill="#e0bd32"/>
<polygon points="182.2,101.5 182.2,108.2 184.1,108.3" fill="#18262f"/>
<polygon points="182.2,101.5 180.2,94.8 178.6,95.8" fill="#18262f"/>
<polygon points="90.5,183.0 102.8,163.5 90.5,166.9" fill="#eec936"/>
<polygon points="163.4,52.0 141.2,54.8 166.7,57.6" fill="#e9c535"/>
<polygon points="178.6,95.8 180.2,94.8 177.2,93.4" fill="#e0bd32"/>
<polygon points="163.4,52.0 140.0,49.4 141.2,54.8" fill="#e9c535"/>
<polygon points="182.2,101.5 180.2,107.2 182.2,108.2" fill="#18262f"/>
<polygon points="182.2,101.5 178.6,95.8 177.5,97.7" fill="#18262f"/>
<polygon points="152.6,163.3 165.0,166.7 173.9,163.4" fill="#d4b32f"/>
<polygon points="180.1,123.6 187.2,109.6 182.2,108.2" fill="#e0bd32"/>
<polygon points="152.6,179.5 155.8,184.6 165.0,182.9" fill="#d7b630"/>
<polygon points="182.2,101.5 178.6,105.3 180.2,107.2" fill="#18262f"/>
<polygon points="182.2,101.5 177.5,97.7 177.2,100.2" fill="#18262f"/>
<polygon points="177.5,97.7 178.6,95.8 177.2,93.4" fill="#e0bd32"/>
<polygon points="188.2,140.8 187.2,109.6 182.2,125.7" fill="#e0bd32"/>
<polygon points="152.6,179.5 165.0,182.9 165.0,166.7" fill="#e0bd32"/>
<polygon points="182.2,101.5 177.5,102.8 178.6,105.3" fill="#18262f"/>
<polygon points="182.2,101.5 177.2,100.2 177.5,102.8" fill="#18262f"/>
<polygon points="152.6,179.5 146.4,182.1 155.8,184.6" fill="#d7b630"/>
<polygon points="87.0,135.5 87.0,65.6 67.1,71.2" fill="#eec936"/>
<polygon points="177.2,100.2 177.5,97.7 177.2,93.4" fill="#e0bd32"/>
<polygon points="114.8,49.5 88.2,57.8 113.6,54.8" fill="#eeca36"/>
<polygon points="167.9,65.4 177.2,100.2 177.2,93.4" fill="#e0bd32"/>
<polygon points="87.0,135.5 67.1,71.2 67.1,141.1" fill="#eec936"/>
<polygon points="90.5,166.9 96.7,159.4 81.6,163.6" fill="#d1b12e"/>
<polygon points="182.2,108.2 180.2,107.2 177.2,106.9" fill="#e0bd32"/>
<polygon points="180.1,123.6 182.2,125.7 187.2,109.6" fill="#e0bd32"/>
<polygon points="113.6,54.8 88.2,57.8 87.0,65.6" fill="#f2cd37"/>
<polygon points="140.0,49.4 114.8,49.5 113.6,54.8" fill="#edc936"/>
<polygon points="180.2,107.2 178.6,105.3 177.2,106.9" fill="#e0bd32"/>
<polygon points="90.5,183.0 109.1,182.2 102.8,179.6" fill="#d7b630"/>
<polygon points="178.6,105.3 177.5,102.8 177.2,106.9" fill="#e0bd32"/>
<polygon points="177.5,102.8 177.2,100.2 177.2,106.9" fill="#e0bd32"/>
<polygon points="152.6,179.5 165.0,166.7 152.6,163.3" fill="#e0bd32"/>
<polygon points="180.1,123.6 182.2,108.2 177.2,106.9" fill="#e0bd32"/>
<polygon points="166.7,57.6 141.6,62.4 167.9,65.4" fill="#ebc735"/>
<polygon points="90.5,166.9 102.8,163.5 96.7,159.4" fill="#d1b12e"/>
<polygon points="188.2,140.8 182.2,125.7 182.2,128.4" fill="#e0bd32"/>
<polygon points="90.5,183.0 102.8,179.6 102.8,163.5" fill="#eec936"/>
<polygon points="140.0,49.4 113.6,54.8 141.2,54.8" fill="#edc936"/>
<polygon points="158.4,159.2 173.9,163.4 181.4,157.3" fill="#d0b02e"/>
<polygon points="182.2,125.7 180.1,123.6 182.2,128.4" fill="#18262f"/>
<polygon points="102.8,179.6 109.1,182.2 121.1,180.7" fill="#d7b630"/>
<polygon points="166.7,57.6 141.2,54.8 141.6,62.4" fill="#ebc735"/>
<polygon points="152.6,163.3 173.9,163.4 158.4,159.2" fill="#d4b32f"/>
<polygon points="81.6,163.6 91.6,152.6 74.0,157.6" fill="#d7b630"/>
<polygon points="113.6,54.8 87.0,65.6 113.2,62.5" fill="#f2cd37"/>
<polygon points="188.2,140.8 182.2,128.4 175.0,130.5" fill="#e0bd32"/>
<polygon points="180.1,123.6 177.2,106.9 175.0,125.2" fill="#e0bd32"/>
<polygon points="167.9,65.4 167.9,124.6 177.2,100.2" fill="#e0bd32"/>
<polygon points="136.3,177.7 134.3,180.7 146.4,182.1" fill="#d7b630"/>
<polygon points="180.1,123.6 175.0,130.5 182.2,128.4" fill="#18262f"/>
<polygon points="177.2,106.9 177.2,100.2 167.9,124.6" fill="#e0bd32"/>
<polygon points="68.9,149.7 87.0,135.5 67.1,141.1" fill="#ebc735"/>
<polygon points="163.4,152.4 181.4,157.3 186.4,149.4" fill="#d7b630"/>
<polygon points="74.0,157.6 88.2,144.3 68.9,149.7" fill="#e2c033"/>
<polygon points="102.8,179.6 118.9,161.6 102.8,163.5" fill="#f1cc37"/>
<polygon points="141.2,54.8 113.6,54.8 113.2,62.5" fill="#f1cc37"/>
<polygon points="136.3,177.7 146.4,182.1 152.6,179.5" fill="#d7b630"/>
<polygon points="118.9,177.7 121.1,180.7 134.3,180.7" fill="#d7b630"/>
<polygon points="166.7,144.1 186.4,149.4 188.2,140.8" fill="#debc31"/>
<polygon points="149.4,88.9 167.9,65.4 141.6,62.4" fill="#eac635"/>
<polygon points="81.6,163.6 96.7,159.4 91.6,152.6" fill="#d7b630"/>
<polygon points="180.1,123.6 175.0,125.2 175.0,130.5" fill="#18262f"/>
<polygon points="136.3,161.5 152.6,163.3 158.4,159.2" fill="#d2b22e"/>
<polygon points="141.2,54.8 113.2,62.5 141.6,62.4" fill="#f1cc37"/>
<polygon points="149.4,88.9 155.9,89.6 167.9,65.4" fill="#eac635"/>
<polygon points="102.8,179.6 121.1,180.7 118.9,177.7" fill="#d7b630"/>
<polygon points="136.3,177.7 152.6,179.5 152.6,163.3" fill="#eac635"/>
<polygon points="136.3,177.7 152.6,163.3 136.3,161.5" fill="#eac635"/>
<polygon points="155.9,89.6 167.9,124.6 167.9,65.4" fill="#eac635"/>
<polygon points="177.2,106.9 167.9,124.6 175.0,125.2" fill="#e0bd32"/>
<polygon points="158.4,159.2 181.4,157.3 163.4,152.4" fill="#d0b02e"/>
<polygon points="167.9,129.9 188.2,140.8 175.0,130.5" fill="#e0bd32"/>
<polygon points="102.8,179.6 118.9,177.7 118.9,161.6" fill="#f1cc37"/>
<polygon points="102.8,163.5 118.9,161.6 116.7,157.0" fill="#d1b12e"/>
<polygon points="118.9,177.7 134.3,180.7 136.3,177.7" fill="#d7b630"/>
<polygon points="102.8,163.5 116.7,157.0 96.7,159.4" fill="#d1b12e"/>
<polygon points="118.9,177.7 136.3,161.5 118.9,161.6" fill="#f0cb36"/>
<polygon points="74.0,157.6 91.6,152.6 88.2,144.3" fill="#e2c033"/>
<polygon points="155.9,89.6 154.0,91.3 155.4,93.7" fill="#eac635"/>
<polygon points="155.9,89.6 151.9,89.6 154.0,91.3" fill="#eac635"/>
<polygon points="113.2,132.5 113.2,62.5 87.0,65.6" fill="#f1cc37"/>
<polygon points="155.9,89.6 155.4,93.7 155.9,96.3" fill="#eac635"/>
<polygon points="118.9,177.7 136.3,177.7 136.3,161.5" fill="#f0cb36"/>
<polygon points="167.9,129.9 167.9,135.3 188.2,140.8" fill="#e0bd32"/>
<polygon points="118.9,161.6 136.3,161.5 138.3,157.0" fill="#d1b12e"/>
<polygon points="175.0,125.2 167.9,129.9 175.0,130.5" fill="#18262f"/>
<polygon points="155.9,89.6 149.4,88.9 151.9,89.6" fill="#eac635"/>
<polygon points="68.9,149.7 88.2,144.3 87.0,135.5" fill="#ebc735"/>
<polygon points="163.4,152.4 186.4,149.4 166.7,144.1" fill="#d7b630"/>
<polygon points="136.3,161.5 158.4,159.2 138.3,157.0" fill="#d2b22e"/>
<polygon points="141.6,62.4 142.9,88.1 149.4,88.9" fill="#eac635"/>
<polygon points="166.7,144.1 188.2,140.8 167.9,135.3" fill="#debc31"/>
<polygon points="155.9,89.6 155.9,96.3 167.9,124.6" fill="#eac635"/>
<polygon points="155.4,93.7 154.0,91.3 149.4,95.6" fill="#1a2832"/>
<polygon points="154.0,91.3 151.9,89.6 149.4,95.6" fill="#1a2832"/>
<polygon points="155.9,96.3 155.4,93.7 149.4,95.6" fill="#1a2832"/>
<polygon points="151.9,89.6 149.4,88.9 149.4,95.6" fill="#1a2832"/>
<polygon points="155.9,103.0 155.9,96.3 155.4,98.8" fill="#eac635"/>
<polygon points="155.4,98.8 155.9,96.3 149.4,95.6" fill="#1a2832"/>
<polygon points="175.0,125.2 167.9,124.6 167.9,129.9" fill="#18262f"/>
<polygon points="141.6,62.4 142.9,94.9 142.9,88.1" fill="#eac635"/>
<polygon points="149.4,88.9 146.9,89.1 149.4,95.6" fill="#1a2832"/>
<polygon points="155.9,103.0 155.4,98.8 154.0,100.9" fill="#eac635"/>
<polygon points="142.9,88.1 146.9,89.1 149.4,88.9" fill="#eac635"/>
<polygon points="154.0,100.9 155.4,98.8 149.4,95.6" fill="#1a2832"/>
<polygon points="113.2,132.5 87.0,65.6 87.0,135.5" fill="#f1cc37"/>
<polygon points="146.9,89.1 144.8,90.3 149.4,95.6" fill="#1a2832"/>
<polygon points="118.9,161.6 138.3,157.0 116.7,157.0" fill="#d1b12e"/>
<polygon points="155.9,103.0 154.0,100.9 151.9,102.1" fill="#eac635"/>
<polygon points="138.3,157.0 158.4,159.2 163.4,152.4" fill="#d5b52f"/>
<polygon points="142.9,88.1 144.8,90.3 146.9,89.1" fill="#eac635"/>
<polygon points="151.9,102.1 154.0,100.9 149.4,95.6" fill="#1a2832"/>
<polygon points="158.6,122.2 155.9,96.3 155.9,103.0" fill="#eac635"/>
<polygon points="142.9,101.6 142.9,94.9 141.6,62.4" fill="#eac635"/>
<polygon points="141.6,132.4 141.6,62.4 113.2,62.5" fill="#f0cb36"/>
<polygon points="158.6,122.2 167.9,124.6 155.9,96.3" fill="#eac635"/>
<polygon points="144.8,90.3 143.4,92.3 149.4,95.6" fill="#1a2832"/>
<polygon points="155.9,103.0 151.9,102.1 149.4,102.3" fill="#eac635"/>
<polygon points="142.9,88.1 143.4,92.3 144.8,90.3" fill="#eac635"/>
<polygon points="149.4,102.3 151.9,102.1 149.4,95.6" fill="#1a2832"/>
<polygon points="143.4,92.3 142.9,94.9 149.4,95.6" fill="#1a2832"/>
<polygon points="142.9,88.1 142.9,94.9 143.4,92.3" fill="#eac635"/>
<polygon points="146.9,101.5 149.4,102.3 149.4,95.6" fill="#1a2832"/>
<polygon points="158.6,122.2 155.9,103.0 149.4,102.3" fill="#eac635"/>
<polygon points="142.9,94.9 143.4,97.5 149.4,95.6" fill="#1a2832"/>
<polygon points="144.8,99.8 146.9,101.5 149.4,95.6" fill="#1a2832"/>
<polygon points="96.7,159.4 114.8,149.9 91.6,152.6" fill="#d9b830"/>
<polygon points="143.4,97.5 144.8,99.8 149.4,95.6" fill="#1a2832"/>
<polygon points="158.6,127.6 167.9,129.9 167.9,124.6" fill="#1a2832"/>
<polygon points="96.7,159.4 116.7,157.0 114.8,149.9" fill="#d9b830"/>
<polygon points="142.9,101.6 149.4,102.3 146.9,101.5" fill="#eac635"/>
<polygon points="158.6,127.6 167.9,124.6 158.6,122.2" fill="#1a2832"/>
<polygon points="142.9,101.6 143.4,97.5 142.9,94.9" fill="#eac635"/>
<polygon points="142.9,101.6 146.9,101.5 144.8,99.8" fill="#eac635"/>
<polygon points="142.9,101.6 144.8,99.8 143.4,97.5" fill="#eac635"/>
<polygon points="158.6,127.6 167.9,135.3 167.9,129.9" fill="#eac635"/>
<polygon points="158.6,122.2 149.4,102.3 152.0,118.5" fill="#eac635"/>
<polygon points="142.9,101.6 141.6,62.4 141.6,132.4" fill="#eac635"/>
<polygon points="149.4,102.3 142.9,101.6 149.4,119.8" fill="#eac635"/>
<polygon points="149.4,102.3 149.4,119.8 152.0,118.5" fill="#eac635"/>
<polygon points="138.3,157.0 163.4,152.4 140.0,149.8" fill="#d5b52f"/>
<polygon points="140.0,149.8 163.4,152.4 166.7,144.1" fill="#dfbd32"/>
<polygon points="149.4,122.5 158.6,127.6 158.6,122.2" fill="#1a2832"/>
<polygon points="116.7,157.0 138.3,157.0 140.0,149.8" fill="#d9b730"/>
<polygon points="149.4,122.5 158.6,122.2 152.0,118.5" fill="#1a2832"/>
<polygon points="91.6,152.6 113.6,141.3 88.2,144.3" fill="#e5c234"/>
<polygon points="149.4,122.5 149.4,119.8 142.9,101.6" fill="#eac635"/>
<polygon points="149.4,122.5 152.0,118.5 149.4,119.8" fill="#1a2832"/>
<polygon points="88.2,144.3 113.2,132.5 87.0,135.5" fill="#efca36"/>
<polygon points="141.6,132.4 113.2,62.5 113.2,132.5" fill="#f0cb36"/>
<polygon points="141.2,141.2 166.7,144.1 167.9,135.3" fill="#e8c434"/>
<polygon points="158.6,127.6 141.6,132.4 167.9,135.3" fill="#eac635"/>
<polygon points="116.7,157.0 140.0,149.8 114.8,149.9" fill="#d9b730"/>
<polygon points="91.6,152.6 114.8,149.9 113.6,141.3" fill="#e5c234"/>
<polygon points="149.4,122.5 142.9,101.6 141.6,132.4" fill="#eac635"/>
<polygon points="158.6,127.6 149.4,122.5 141.6,132.4" fill="#eac635"/>
<polygon points="140.0,149.8 166.7,144.1 141.2,141.2" fill="#dfbd32"/>
<polygon points="88.2,144.3 113.6,141.3 113.2,132.5" fill="#efca36"/>
<polygon points="141.2,141.2 167.9,135.3 141.6,132.4" fill="#e8c434"/>
<polygon points="114.8,149.9 140.0,149.8 141.2,141.2" fill="#e4c133"/>
<polygon points="114.8,149.9 141.2,141.2 113.6,141.3" fill="#e4c133"/>
<polygon points="113.6,141.3 141.6,132.4 113.2,132.5" fill="#edc936"/>
<polygon points="113.6,141.3 141.2,141.2 141.6,132.4" fill="#edc936"/>
<rect x="25" y="222" width="122" height="18" rx="9" fill="#eff6f1"/>
<text x="34" y="235" fill="#26735a" font-family="Arial,sans-serif" font-size="9" font-weight="700">OFFIZIELLES LDRAW</text>
</svg>