0 Unprinted legs assembly from official parts
0 Name: legs-unprinted-6c6e68-leftleg3f3691-rightleg9fc3e9.ldr
0 // License: CC BY 2.0 and/or CC BY 4.0 as declared per official part file; see referenced official part and LDraw-CAreadme.txt
0 !COLOUR FigForge_Catalog CODE 10000 VALUE #6C6E68 EDGE #333333
0 !COLOUR FigForge_RightLeg CODE 10002 VALUE #9FC3E9 EDGE #333333
0 !COLOUR FigForge_LeftLeg CODE 10001 VALUE #3F3691 EDGE #333333
1 10000 0 0 0 1 0 0 0 1 0 0 0 1 3815b.dat
1 10002 0 12 0 1 0 0 0 1 0 0 0 1 3816c.dat
1 10001 0 12 0 1 0 0 0 1 0 0 0 1 3817c.dat
