0 Unprinted torso assembly from official parts
0 Name: torso-unprinted-c91a09-armsc91a09-handsf2cd37.ldr
0 // License: CC BY 2.0 and/or CC BY 4.0 as declared per official part file; see referenced official part and LDraw-CAreadme.txt
0 !COLOUR FigForge_Catalog CODE 10000 VALUE #C91A09 EDGE #333333
0 !COLOUR FigForge_Arms CODE 10001 VALUE #C91A09 EDGE #333333
0 !COLOUR FigForge_Hands CODE 10002 VALUE #F2CD37 EDGE #333333
1 10001 -15.552 9 0 0.985 -0.17 0 0.17 0.985 0 0 0 1 3818.dat
1 10001 15.552 9 0 0.985 0.17 0 -0.17 0.985 0 0 0 1 3819.dat
1 10002 -23.69 26.774 -9.898 0.985 -0.12 0.12 0.17 0.696 -0.696 0 0.707 0.707 3820.dat
1 10002 23.69 26.774 -9.898 0.985 0.12 -0.12 -0.17 0.696 -0.696 0 0.707 0.707 3820.dat
1 10000 0 0 0 1 0 0 0 1 0 0 0 1 973.dat
