0 Hips and Bright Light Orange Legs with Pockets, Yellow/Silver Stripes (Firefighter) Print
0 Name: legs-970c38pr1598.ldr
0 // License: CC BY 2.0 and/or CC BY 4.0 as declared per official part file; see referenced official part and LDraw-CAreadme.txt
0 !COLOUR FigForge_Catalog CODE 10000 VALUE #F8BB3D EDGE #333333
0 !COLOUR FigForge_Legs CODE 10001 VALUE #F8BB3D EDGE #333333
1 10000 0 0 0 1 0 0 0 1 0 0 0 1 3815b.dat
1 10001 0 12 0 1 0 0 0 1 0 0 0 1 3816cp70.dat
1 10001 0 12 0 1 0 0 0 1 0 0 0 1 3817cp70.dat
