0 Unprinted legs assembly from official parts
0 Name: legs-unprinted-184632-boots582a12-legs184632.ldr
0 // License: CC BY 2.0 and/or CC BY 4.0 as declared per official part file; see referenced official part and LDraw-CAreadme.txt
0 !COLOUR FigForge_Catalog CODE 10000 VALUE #184632 EDGE #333333
0 !COLOUR FigForge_Legs CODE 10001 VALUE #184632 EDGE #333333
0 !COLOUR FigForge_Boots CODE 10002 VALUE #582A12 EDGE #333333
1 10000 0 0 0 1 0 0 0 1 0 0 0 1 3815b.dat
1 10001 0 12 0 1 0 0 0 1 0 0 0 1 s/20460bs01.dat
1 10002 0 12 0 1 0 0 0 1 0 0 0 1 s/20460bs02.dat
1 10001 0 12 0 -1 0 0 0 1 0 0 0 1 s/20460bs01.dat
1 10002 0 12 0 -1 0 0 0 1 0 0 0 1 s/20460bs02.dat
